<?xml version="1.0"?>
<svg version="1.1" xmlns="http://www.w3.org/2000/svg" width="400" height="200" style=""><path fill="#" d="M35.88,104.8l-0.92-3.84s-1.88-0.64-4.48-0.64c-4.2,0-6.6,3.12-6.6,9.8c0,6.48,2.6,9.2,6.8,9.2c4,0,7.6-2.8,7.6-2.8l2.2,3.6s-4.2,4.36-10.48,4.36c-8.12,0-12.8-4.88-12.8-14.16c0-9.4,5.28-15,13.48-15c4.84,0,9.32,1.88,9.32,1.88l-0.2,7.6l-3.92,0z M56.6604,102c6.48,0,10.08,3.92,10.08,10.8c0,7.2-4.2,11.6-10.68,11.6c-6.52,0-10.2-3.4-10.2-11c0-7.2,4.28-11.4,10.8-11.4z M56.4604,106.8c-2.92,0-4.4,1.6-4.4,6.4c0,4.4,1.28,6.4,4.2,6.4c2.88,0,4.28-1.8,4.28-6.6c0-4.08-1.2-6.2-4.08-6.2z M109.6408,120.8l0,3.2l-10.84,0l0-3.2l2.12-1l0-9.52c0-2.2-0.64-3.28-2.32-3.28c-2.6,0-4.44,2.08-4.44,2.08l0,10.72l2.08,1l0,3.2l-10.16,0l0-3.2l2.08-1l0-9.52c0-2.2-0.56-3.28-2.28-3.28c-2.6,0-4.48,2.08-4.48,2.08l0,10.72l2.12,1l0,3.2l-11.2,0l0-3.2l3.08-1l0-13l-3.04-1l0-3.2l8.36-0.2l0.28,2.84s3.48-3.24,7-3.24c2.84,0,4.6,1.32,5.52,3.44c0.68-0.68,3.68-3.44,7.24-3.44c4.2,0,6.16,2.72,6.16,7.2l0,10.6z M114.2212,102.6l8.52-0.2l0.36,2.24s2.72-2.64,5.92-2.64c5.56,0,8.32,4.12,8.32,10.6c0,7.4-3.52,11.8-10.52,11.8c-1.16,0-2.36-0.16-3.4-0.4l0,5.08l3.8,0.92l0,3.2l-12.92,0l0-3.2l3.12-0.92l0-22.28l-3.2-1l0-3.2z M123.4212,109l0,10.2c0.64,0.28,1.6,0.6,3.12,0.6c3.44,0,4.6-2.4,4.6-6.48c0-4.04-1.08-6.52-4-6.52c-2.6,0-3.72,2.2-3.72,2.2z M156.7616,124l-0.72-2.6s-3.08,3-6.48,3c-3.88,0-6.24-2.28-6.24-6.28c0-4.72,3.56-6.6,9.64-6.6l2.8,0l0-2.2c0-2.04-1.08-2.92-3.08-2.92c-2.04,0-3.52,0.6-3.52,0.6l-0.6,2.52l-3.6,0l-0.28-5.92s4.84-1.6,8.68-1.6c6.08,0,8.4,2.12,8.4,7.92l0,9.88l3,0.72l0,3.2z M155.7616,114.92l-2.28,0c-3.12,0-4.36,0.8-4.36,2.6c0,1.52,0.84,2.4,2.36,2.4c2.12,0,4.28-2.32,4.28-2.32l0-2.68z M178.342,102.4l0.36,2.76s2.88-3.16,5.56-3.16c2.2,0,3.72,0.72,3.72,0.72l-0.32,7.68l-3.6,0l-0.6-3.4c-2.32,0-4.32,2.24-4.32,2.24l0,10.56l4,1l0,3.2l-13.2,0l0-3.2l3.2-1l0-13l-3.2-1l0-3.2z M211.8824,114.52l-13.28,0c0.24,3.2,2.08,5.08,4.84,5.08c3.32,0,6.72-1.88,6.72-1.88l1.72,3.32s-4,3.36-9.12,3.36c-6.88,0-10.4-4-10.4-10.8c0-7,3.96-11.6,10.68-11.6c5.96,0,9.08,3.68,9.08,9.4c0,1.52-0.24,3-0.24,3.12z M198.6824,110.8l7.24,0c0-2.28-0.96-4-3.28-4c-2.24,0-3.64,1.64-3.96,4z"/><path fill="#064d0a" d="M230.9512375,108.8671875l1.9921875,0q2.79296875,0,4.1796875-1.103515625t1.38671875-3.212890625q0-2.12890625-1.162109375-3.14453125t-3.642578125-1.015625l-2.75390625,0l0,8.4765625z M244.6231125,104.3359375q0,4.609375-2.880859375,7.05078125t-8.193359375,2.44140625l-2.59765625,0l0,10.15625l-6.0546875,0l0-28.5546875l9.12109375,0q5.1953125,0,7.900390625,2.236328125t2.705078125,6.669921875z M264.4819015625,101.73828125q1.2109375,0,2.01171875,0.17578125l-0.44921875,5.5859375q-0.72265625-0.1953125-1.7578125-0.1953125q-2.8515625,0-4.443359375,1.46484375t-1.591796875,4.1015625l0,11.11328125l-5.95703125,0l0-21.8359375l4.51171875,0l0.87890625,3.671875l0.29296875,0q1.015625-1.8359375,2.744140625-2.958984375t3.759765625-1.123046875z M272.953971875,96.50390625q0-2.91015625,3.2421875-2.91015625t3.2421875,2.91015625q0,1.38671875-0.810546875,2.158203125t-2.431640625,0.771484375q-3.2421875,0-3.2421875-2.9296875z M279.164909375,123.984375l-5.95703125,0l0-21.8359375l5.95703125,0l0,21.8359375z M297.0315109375,124.375q-10.1953125,0-10.1953125-11.19140625q0-5.56640625,2.7734375-8.505859375t7.94921875-2.939453125q3.7890625,0,6.796875,1.484375l-1.7578125,4.609375q-1.40625-0.56640625-2.6171875-0.927734375t-2.421875-0.361328125q-4.6484375,0-4.6484375,6.6015625q0,6.40625,4.6484375,6.40625q1.71875,0,3.18359375-0.458984375t2.9296875-1.435546875l0,5.09765625q-1.4453125,0.91796875-2.919921875,1.26953125t-3.720703125,0.3515625z M320.5231125,105.9765625q-1.89453125,0-2.96875,1.201171875t-1.23046875,3.408203125l8.359375,0q-0.0390625-2.20703125-1.15234375-3.408203125t-3.0078125-1.201171875z M321.36295625,124.375q-5.2734375,0-8.2421875-2.91015625t-2.96875-8.2421875q0-5.48828125,2.744140625-8.486328125t7.587890625-2.998046875q4.62890625,0,7.20703125,2.63671875t2.578125,7.28515625l0,2.890625l-14.08203125,0q0.09765625,2.5390625,1.50390625,3.96484375t3.9453125,1.42578125q1.97265625,0,3.73046875-0.41015625t3.671875-1.30859375l0,4.609375q-1.5625,0.78125-3.33984375,1.162109375t-4.3359375,0.380859375z M353.0967453125,117.5q0,3.359375-2.333984375,5.1171875t-6.982421875,1.7578125q-2.3828125,0-4.0625-0.322265625t-3.14453125-0.947265625l0-4.921875q1.66015625,0.78125,3.740234375,1.30859375t3.662109375,0.52734375q3.2421875,0,3.2421875-1.875q0-0.703125-0.4296875-1.142578125t-1.484375-0.99609375t-2.8125-1.298828125q-2.51953125-1.0546875-3.701171875-1.953125t-1.71875-2.060546875t-0.537109375-2.861328125q0-2.91015625,2.255859375-4.501953125t6.396484375-1.591796875q3.9453125,0,7.67578125,1.71875l-1.796875,4.296875q-1.640625-0.703125-3.06640625-1.15234375t-2.91015625-0.44921875q-2.63671875,0-2.63671875,1.42578125q0,0.80078125,0.849609375,1.38671875t3.720703125,1.73828125q2.55859375,1.03515625,3.75,1.93359375t1.7578125,2.0703125t0.56640625,2.79296875z"/></svg>
